<mxfile host="app.diagrams.net" agent="Mozilla/5.0 (Windows NT 10.0; Win64; x64) AppleWebKit/537.36 (KHTML, like Gecko) Chrome/129.0.0.0 Safari/537.36" version="24.7.17">
  <diagram name="Side-1" id="eiTZTMTORghjNj7tX9Q2">
    <mxGraphModel dx="2086" dy="662" grid="1" gridSize="10" guides="1" tooltips="1" connect="1" arrows="1" fold="1" page="1" pageScale="1" pageWidth="827" pageHeight="1169" math="0" shadow="0">
      <root>
        <mxCell id="0" />
        <mxCell id="1" parent="0" />
        <mxCell id="2y5FE5ptQaROnDGIxqtj-1" value="&lt;font size=&quot;1&quot; style=&quot;&quot;&gt;&lt;b style=&quot;font-size: 26px;&quot;&gt;Kelvin Connection&lt;/b&gt;&lt;/font&gt;" style="rounded=1;whiteSpace=wrap;html=1;fontSize=22;fillColor=#dae8fc;strokeColor=#6c8ebf;" parent="1" vertex="1">
          <mxGeometry x="-730" y="435" width="660" height="40" as="geometry" />
        </mxCell>
        <mxCell id="2y5FE5ptQaROnDGIxqtj-2" value="" style="rounded=0;whiteSpace=wrap;html=1;" parent="1" vertex="1">
          <mxGeometry x="-395" y="550" width="50" height="20" as="geometry" />
        </mxCell>
        <mxCell id="2y5FE5ptQaROnDGIxqtj-3" value="&lt;font style=&quot;font-size: 20px;&quot;&gt;H&lt;sub style=&quot;font-size: 20px;&quot;&gt;Cur&lt;/sub&gt;&lt;/font&gt;" style="text;html=1;align=center;verticalAlign=middle;whiteSpace=wrap;rounded=0;fontSize=20;" parent="1" vertex="1">
          <mxGeometry x="-690" y="478.75" width="60" height="30" as="geometry" />
        </mxCell>
        <mxCell id="2y5FE5ptQaROnDGIxqtj-4" value="&lt;span style=&quot;color: rgb(0, 0, 0); font-family: Helvetica; font-size: 20px; font-style: normal; font-variant-ligatures: normal; font-variant-caps: normal; font-weight: 400; letter-spacing: normal; orphans: 2; text-align: center; text-indent: 0px; text-transform: none; widows: 2; word-spacing: 0px; -webkit-text-stroke-width: 0px; white-space: normal; background-color: rgb(251, 251, 251); text-decoration-thickness: initial; text-decoration-style: initial; text-decoration-color: initial; float: none; display: inline !important;&quot;&gt;H&lt;/span&gt;&lt;sub style=&quot;forced-color-adjust: none; color: rgb(0, 0, 0); font-family: Helvetica; font-style: normal; font-variant-ligatures: normal; font-variant-caps: normal; font-weight: 400; letter-spacing: normal; orphans: 2; text-align: center; text-indent: 0px; text-transform: none; widows: 2; word-spacing: 0px; -webkit-text-stroke-width: 0px; white-space: normal; background-color: rgb(251, 251, 251); text-decoration-thickness: initial; text-decoration-style: initial; text-decoration-color: initial; font-size: 20px;&quot;&gt;Pot&lt;/sub&gt;" style="text;whiteSpace=wrap;html=1;fontSize=20;" parent="1" vertex="1">
          <mxGeometry x="-520" y="478.75" width="60" height="40" as="geometry" />
        </mxCell>
        <mxCell id="2y5FE5ptQaROnDGIxqtj-5" value="&lt;span style=&quot;color: rgb(0, 0, 0); font-family: Helvetica; font-size: 20px; font-style: normal; font-variant-ligatures: normal; font-variant-caps: normal; font-weight: 400; letter-spacing: normal; orphans: 2; text-align: center; text-indent: 0px; text-transform: none; widows: 2; word-spacing: 0px; -webkit-text-stroke-width: 0px; white-space: normal; background-color: rgb(251, 251, 251); text-decoration-thickness: initial; text-decoration-style: initial; text-decoration-color: initial; float: none; display: inline !important;&quot;&gt;L&lt;/span&gt;&lt;sub style=&quot;forced-color-adjust: none; color: rgb(0, 0, 0); font-family: Helvetica; font-style: normal; font-variant-ligatures: normal; font-variant-caps: normal; font-weight: 400; letter-spacing: normal; orphans: 2; text-align: center; text-indent: 0px; text-transform: none; widows: 2; word-spacing: 0px; -webkit-text-stroke-width: 0px; white-space: normal; background-color: rgb(251, 251, 251); text-decoration-thickness: initial; text-decoration-style: initial; text-decoration-color: initial; font-size: 20px;&quot;&gt;Pot&lt;/sub&gt;" style="text;whiteSpace=wrap;html=1;fontSize=20;" parent="1" vertex="1">
          <mxGeometry x="-270" y="485" width="60" height="40" as="geometry" />
        </mxCell>
        <mxCell id="2y5FE5ptQaROnDGIxqtj-6" value="&lt;span style=&quot;color: rgb(0, 0, 0); font-family: Helvetica; font-size: 20px; font-style: normal; font-variant-ligatures: normal; font-variant-caps: normal; font-weight: 400; letter-spacing: normal; orphans: 2; text-align: center; text-indent: 0px; text-transform: none; widows: 2; word-spacing: 0px; -webkit-text-stroke-width: 0px; white-space: normal; background-color: rgb(251, 251, 251); text-decoration-thickness: initial; text-decoration-style: initial; text-decoration-color: initial; float: none; display: inline !important;&quot;&gt;L&lt;/span&gt;&lt;sub style=&quot;forced-color-adjust: none; color: rgb(0, 0, 0); font-family: Helvetica; font-style: normal; font-variant-ligatures: normal; font-variant-caps: normal; font-weight: 400; letter-spacing: normal; orphans: 2; text-align: center; text-indent: 0px; text-transform: none; widows: 2; word-spacing: 0px; -webkit-text-stroke-width: 0px; white-space: normal; background-color: rgb(251, 251, 251); text-decoration-thickness: initial; text-decoration-style: initial; text-decoration-color: initial; font-size: 20px;&quot;&gt;Cur&lt;/sub&gt;" style="text;whiteSpace=wrap;html=1;fontSize=20;" parent="1" vertex="1">
          <mxGeometry x="-130" y="485" width="60" height="40" as="geometry" />
        </mxCell>
        <mxCell id="2y5FE5ptQaROnDGIxqtj-7" value="&lt;font style=&quot;font-size: 20px;&quot;&gt;H&lt;sub style=&quot;font-size: 20px;&quot;&gt;Cur&lt;/sub&gt;&lt;/font&gt;" style="text;html=1;align=center;verticalAlign=middle;whiteSpace=wrap;rounded=0;fontSize=20;" parent="1" vertex="1">
          <mxGeometry x="-690" y="400" width="60" height="30" as="geometry" />
        </mxCell>
        <mxCell id="2y5FE5ptQaROnDGIxqtj-8" value="&lt;span style=&quot;color: rgb(0, 0, 0); font-family: Helvetica; font-size: 20px; font-style: normal; font-variant-ligatures: normal; font-variant-caps: normal; font-weight: 400; letter-spacing: normal; orphans: 2; text-align: center; text-indent: 0px; text-transform: none; widows: 2; word-spacing: 0px; -webkit-text-stroke-width: 0px; white-space: normal; background-color: rgb(251, 251, 251); text-decoration-thickness: initial; text-decoration-style: initial; text-decoration-color: initial; float: none; display: inline !important;&quot;&gt;H&lt;/span&gt;&lt;sub style=&quot;forced-color-adjust: none; color: rgb(0, 0, 0); font-family: Helvetica; font-style: normal; font-variant-ligatures: normal; font-variant-caps: normal; font-weight: 400; letter-spacing: normal; orphans: 2; text-align: center; text-indent: 0px; text-transform: none; widows: 2; word-spacing: 0px; -webkit-text-stroke-width: 0px; white-space: normal; background-color: rgb(251, 251, 251); text-decoration-thickness: initial; text-decoration-style: initial; text-decoration-color: initial; font-size: 20px;&quot;&gt;Pot&lt;/sub&gt;" style="text;whiteSpace=wrap;html=1;fontSize=20;" parent="1" vertex="1">
          <mxGeometry x="-520" y="395" width="60" height="40" as="geometry" />
        </mxCell>
        <mxCell id="2y5FE5ptQaROnDGIxqtj-9" value="&lt;span style=&quot;color: rgb(0, 0, 0); font-family: Helvetica; font-size: 20px; font-style: normal; font-variant-ligatures: normal; font-variant-caps: normal; font-weight: 400; letter-spacing: normal; orphans: 2; text-align: center; text-indent: 0px; text-transform: none; widows: 2; word-spacing: 0px; -webkit-text-stroke-width: 0px; white-space: normal; background-color: rgb(251, 251, 251); text-decoration-thickness: initial; text-decoration-style: initial; text-decoration-color: initial; float: none; display: inline !important;&quot;&gt;L&lt;/span&gt;&lt;sub style=&quot;forced-color-adjust: none; color: rgb(0, 0, 0); font-family: Helvetica; font-style: normal; font-variant-ligatures: normal; font-variant-caps: normal; font-weight: 400; letter-spacing: normal; orphans: 2; text-align: center; text-indent: 0px; text-transform: none; widows: 2; word-spacing: 0px; -webkit-text-stroke-width: 0px; white-space: normal; background-color: rgb(251, 251, 251); text-decoration-thickness: initial; text-decoration-style: initial; text-decoration-color: initial; font-size: 20px;&quot;&gt;Pot&lt;/sub&gt;" style="text;whiteSpace=wrap;html=1;fontSize=20;" parent="1" vertex="1">
          <mxGeometry x="-270" y="390" width="60" height="40" as="geometry" />
        </mxCell>
        <mxCell id="2y5FE5ptQaROnDGIxqtj-10" value="&lt;span style=&quot;color: rgb(0, 0, 0); font-family: Helvetica; font-size: 20px; font-style: normal; font-variant-ligatures: normal; font-variant-caps: normal; font-weight: 400; letter-spacing: normal; orphans: 2; text-align: center; text-indent: 0px; text-transform: none; widows: 2; word-spacing: 0px; -webkit-text-stroke-width: 0px; white-space: normal; background-color: rgb(251, 251, 251); text-decoration-thickness: initial; text-decoration-style: initial; text-decoration-color: initial; float: none; display: inline !important;&quot;&gt;L&lt;/span&gt;&lt;sub style=&quot;forced-color-adjust: none; color: rgb(0, 0, 0); font-family: Helvetica; font-style: normal; font-variant-ligatures: normal; font-variant-caps: normal; font-weight: 400; letter-spacing: normal; orphans: 2; text-align: center; text-indent: 0px; text-transform: none; widows: 2; word-spacing: 0px; -webkit-text-stroke-width: 0px; white-space: normal; background-color: rgb(251, 251, 251); text-decoration-thickness: initial; text-decoration-style: initial; text-decoration-color: initial; font-size: 20px;&quot;&gt;Cur&lt;/sub&gt;" style="text;whiteSpace=wrap;html=1;fontSize=20;" parent="1" vertex="1">
          <mxGeometry x="-140" y="390" width="60" height="40" as="geometry" />
        </mxCell>
        <mxCell id="2y5FE5ptQaROnDGIxqtj-11" style="edgeStyle=orthogonalEdgeStyle;rounded=0;orthogonalLoop=1;jettySize=auto;html=1;exitX=1;exitY=0.5;exitDx=0;exitDy=0;entryX=0.882;entryY=0.993;entryDx=0;entryDy=0;entryPerimeter=0;strokeWidth=2;" parent="1" source="2y5FE5ptQaROnDGIxqtj-2" target="2y5FE5ptQaROnDGIxqtj-1" edge="1">
          <mxGeometry relative="1" as="geometry">
            <Array as="points">
              <mxPoint x="-148" y="560" />
            </Array>
          </mxGeometry>
        </mxCell>
        <mxCell id="2y5FE5ptQaROnDGIxqtj-12" style="edgeStyle=orthogonalEdgeStyle;rounded=0;orthogonalLoop=1;jettySize=auto;html=1;entryX=0.156;entryY=1.008;entryDx=0;entryDy=0;entryPerimeter=0;startArrow=classic;startFill=1;endArrow=none;endFill=0;strokeWidth=2;" parent="1" source="2y5FE5ptQaROnDGIxqtj-2" target="2y5FE5ptQaROnDGIxqtj-1" edge="1">
          <mxGeometry relative="1" as="geometry">
            <Array as="points">
              <mxPoint x="-627" y="560" />
            </Array>
          </mxGeometry>
        </mxCell>
        <mxCell id="2y5FE5ptQaROnDGIxqtj-13" value="" style="endArrow=none;html=1;rounded=0;strokeWidth=2;endFill=0;startArrow=classic;startFill=1;" parent="1" edge="1">
          <mxGeometry width="50" height="50" relative="1" as="geometry">
            <mxPoint x="-460" y="475" as="sourcePoint" />
            <mxPoint x="-460" y="559" as="targetPoint" />
          </mxGeometry>
        </mxCell>
        <mxCell id="2y5FE5ptQaROnDGIxqtj-14" value="" style="endArrow=none;html=1;rounded=0;strokeWidth=2;startArrow=classic;startFill=1;endFill=0;" parent="1" edge="1">
          <mxGeometry width="50" height="50" relative="1" as="geometry">
            <mxPoint x="-277" y="475" as="sourcePoint" />
            <mxPoint x="-277" y="559" as="targetPoint" />
          </mxGeometry>
        </mxCell>
        <mxCell id="2y5FE5ptQaROnDGIxqtj-15" value="" style="endArrow=none;html=1;rounded=0;strokeWidth=2;endFill=0;startArrow=classic;startFill=1;" parent="1" edge="1">
          <mxGeometry width="50" height="50" relative="1" as="geometry">
            <mxPoint x="-628" y="435" as="sourcePoint" />
            <mxPoint x="-628" y="385" as="targetPoint" />
          </mxGeometry>
        </mxCell>
        <mxCell id="2y5FE5ptQaROnDGIxqtj-16" value="" style="endArrow=none;html=1;rounded=0;strokeWidth=2;endFill=0;" parent="1" edge="1">
          <mxGeometry width="50" height="50" relative="1" as="geometry">
            <mxPoint x="-460" y="435" as="sourcePoint" />
            <mxPoint x="-460" y="385" as="targetPoint" />
          </mxGeometry>
        </mxCell>
        <mxCell id="2y5FE5ptQaROnDGIxqtj-17" value="" style="endArrow=none;html=1;rounded=0;strokeWidth=2;endFill=0;" parent="1" edge="1">
          <mxGeometry width="50" height="50" relative="1" as="geometry">
            <mxPoint x="-278" y="435" as="sourcePoint" />
            <mxPoint x="-278" y="385" as="targetPoint" />
          </mxGeometry>
        </mxCell>
        <mxCell id="2y5FE5ptQaROnDGIxqtj-18" value="" style="endArrow=none;html=1;rounded=0;strokeWidth=2;endFill=0;" parent="1" edge="1">
          <mxGeometry width="50" height="50" relative="1" as="geometry">
            <mxPoint x="-148" y="435" as="sourcePoint" />
            <mxPoint x="-148" y="385" as="targetPoint" />
          </mxGeometry>
        </mxCell>
        <mxCell id="2y5FE5ptQaROnDGIxqtj-19" value="" style="shape=offPageConnector;whiteSpace=wrap;html=1;rotation=-180;size=0.15555555555555556;" parent="1" vertex="1">
          <mxGeometry x="-468" y="342" width="16" height="45" as="geometry" />
        </mxCell>
        <mxCell id="2y5FE5ptQaROnDGIxqtj-20" value="" style="shape=offPageConnector;whiteSpace=wrap;html=1;rotation=0;size=0.15555555555555556;" parent="1" vertex="1">
          <mxGeometry x="-636" y="342" width="16" height="45" as="geometry" />
        </mxCell>
        <mxCell id="2y5FE5ptQaROnDGIxqtj-21" value="" style="shape=offPageConnector;whiteSpace=wrap;html=1;rotation=-180;size=0.15555555555555556;" parent="1" vertex="1">
          <mxGeometry x="-286" y="342" width="16" height="45" as="geometry" />
        </mxCell>
        <mxCell id="2y5FE5ptQaROnDGIxqtj-22" value="" style="shape=offPageConnector;whiteSpace=wrap;html=1;rotation=-180;size=0.15555555555555556;" parent="1" vertex="1">
          <mxGeometry x="-156" y="342" width="16" height="45" as="geometry" />
        </mxCell>
        <mxCell id="2y5FE5ptQaROnDGIxqtj-24" value="&lt;font style=&quot;font-size: 18px;&quot;&gt;H&lt;sub style=&quot;font-size: 18px;&quot;&gt;Cur&lt;/sub&gt;&lt;br style=&quot;font-size: 18px;&quot;&gt;(From Analog Front End)&lt;/font&gt;" style="text;html=1;align=center;verticalAlign=middle;resizable=0;points=[];autosize=1;strokeColor=none;fillColor=none;rotation=-45;fontSize=18;" parent="1" vertex="1">
          <mxGeometry x="-740" y="261" width="220" height="60" as="geometry" />
        </mxCell>
        <mxCell id="2y5FE5ptQaROnDGIxqtj-25" value="&lt;font style=&quot;font-size: 18px;&quot;&gt;H&lt;sub style=&quot;font-size: 18px;&quot;&gt;Pot&lt;/sub&gt;&lt;br style=&quot;font-size: 18px;&quot;&gt;(To Analog Front End)&lt;br&gt;&lt;/font&gt;" style="text;html=1;align=center;verticalAlign=middle;resizable=0;points=[];autosize=1;strokeColor=none;fillColor=none;rotation=-45;fontSize=18;" parent="1" vertex="1">
          <mxGeometry x="-556" y="261" width="200" height="60" as="geometry" />
        </mxCell>
        <mxCell id="2y5FE5ptQaROnDGIxqtj-26" value="&lt;font style=&quot;font-size: 18px;&quot;&gt;L&lt;sub style=&quot;font-size: 18px;&quot;&gt;Pot&lt;/sub&gt;&lt;br style=&quot;font-size: 18px;&quot;&gt;(To Analog Front End)&lt;br&gt;&lt;/font&gt;" style="text;html=1;align=center;verticalAlign=middle;resizable=0;points=[];autosize=1;strokeColor=none;fillColor=none;rotation=-45;fontSize=18;" parent="1" vertex="1">
          <mxGeometry x="-378" y="261" width="200" height="60" as="geometry" />
        </mxCell>
        <mxCell id="2y5FE5ptQaROnDGIxqtj-27" value="&lt;font style=&quot;font-size: 18px;&quot;&gt;L&lt;sub style=&quot;font-size: 18px;&quot;&gt;Cur&lt;/sub&gt;&lt;br style=&quot;font-size: 18px;&quot;&gt;(To Analog Front End)&lt;br&gt;&lt;/font&gt;" style="text;html=1;align=center;verticalAlign=middle;resizable=0;points=[];autosize=1;strokeColor=none;fillColor=none;rotation=-45;fontSize=18;" parent="1" vertex="1">
          <mxGeometry x="-248" y="261" width="200" height="60" as="geometry" />
        </mxCell>
        <mxCell id="2y5FE5ptQaROnDGIxqtj-28" value="DUT" style="text;html=1;align=center;verticalAlign=middle;resizable=0;points=[];autosize=1;strokeColor=none;fillColor=none;fontSize=22;" parent="1" vertex="1">
          <mxGeometry x="-405" y="585" width="70" height="40" as="geometry" />
        </mxCell>
      </root>
    </mxGraphModel>
  </diagram>
</mxfile>
